<svg fill="none" height="66" viewBox="0 0 99 66" width="99" xmlns="http://www.w3.org/2000/svg" xmlns:xlink="http://www.w3.org/1999/xlink"><clipPath id="a"><path d="m0 0h99v66h-99z"/></clipPath><g clip-path="url(#a)" clip-rule="evenodd" fill-rule="evenodd"><path d="m81.41 33.26c0 18.24-14.53 32.66-32.66 32.66-18.14 0-32.86-14.55-32.86-32.79s14.61-33.0499982 32.74-33.0499982c18.14 0 32.78 14.9599982 32.78 33.1799982z" fill="#fff"/><g fill="#22a9e0"><path d="m19.5 34.61c-.32-3.09-2.63-4.22-2.94-8.35-.44 2.17-.68 4.44-.68 6.74 0 4.54.91 8.87 2.57 12.81-.54-5 1.48-7.13 1.05-11.2z"/><path d="m32.4999 4.35c-3.86 2.2-7.24 5.16-9.93 8.71 6.18-5.25 12.42-4.58 13.52-5.54 1.41-1.24-4.72-1.74-4.72-1.74s.24-.63 1.13-1.43z"/><path d="m61.4701 63.34c-3.94 1.68-8.2701 2.61-12.8001 2.61-9.82 0-18.62-4.33-24.62-11.2 1.23.5 2.59.66 4.02.51-7.47-7.05-.9-17.96 4.77-22.81 5.67-4.84 10.9301-7.98 11.8101-14.39s-4.46-7.18-8.59-7.18c3.76-3.99 9.3599-3.89 9.8799-3.81.53.08-.62.96-.89 1.82-.28.83-.44.45.43 1.3.86.85 2.0301-1.4 2.5801-2.22.54-.82 1.1499-1.11 2.0299-.74s1.7501.51 2.6301-.65c.88-1.14 2.34-.58 3.75-.43 1.42.14 1.82-.56 2.18-2.01.35-1.45-3.4001-4.370002-14.5301-3.460002-1.35.09-2.55.25-3.62.450002 2.61-.680002 5.3301-1.0300015 8.1301-1.0300015 16.3799 0 29.95 12.0700015 32.38 27.8500015-1.11-2.76-3.1201-7.43-4.0501-7.43-1.32 0-2.49-.61-3.08-1.14-.61-.53-2.8299-3.01-4.1599-1.35s-2.39 5.49.54 7.1 1.92-1.97 3.53-1.37c.56.37.72 4.41 1.57 4.41.83 0 .94-3.8.94-3.8s3.0299 3.75.0799 5.56c-1.89 1.12-5.6099-2.42-8.1499-4.48-2.55-2.04-7.0801-3.03-9.3901 1.48s-1.6699 9.37 2.6301 13.78c4.29 4.41-1.0301 10.11-2.8501 11.9-1.83 1.78-6.56 6.61-.05 9.96.88.45 1.8601.69 2.9001.77zm-14.57-52.01c-1.29 1.16-1.13 1.11-.68 1.39.44.27 2.0899.37 3.0399-1.34.94-1.71-1.0599-1.21-2.3599-.05z"/></g><path d="m86.2301 33.42c-1.98-.31-3.92-.29-4.84-.26v.1c0 1.85-.16 3.67-.44 5.44.89-.08 2.94-.18 5.27.4 10.43 3.01 9.64 15.73-2.13 15.73-27.69 0-38.5-48.51999-64.29-48.51999-10.97004 0-19.7400414 7.65999-19.7400414 15.94999 0 7.41 4.7600014 15.83 15.3700414 17.58l1.18.19c-.4-1.81-.64-3.7-.72-5.61l-.46-.07c-16.100042-3.22-10.99004-22.95 4-22.95 22.7 0 33.61 48.56 64.98 48.56 6.36 0 14.54-3.72 14.54-12.31.02-7.34-5.38-12.9-12.72-14.23z" fill="#f3eb33"/></g></svg>