<svg fill="none" height="319" viewBox="0 0 337 319" width="337" xmlns="http://www.w3.org/2000/svg" xmlns:xlink="http://www.w3.org/1999/xlink"><clipPath id="a"><path d="m0 0h337v319h-337z"/></clipPath><g clip-path="url(#a)"><path d="m315.64 217.025s-.49-3.008-.777-2.98l-54.565 5.264c-4.342.419-7.714 3.882-8.018 8.233l-1.499 21.485-42.214 3.012-2.871-19.472c-.64-4.332-4.422-7.596-8.8-7.596h-57.59c-4.377 0-8.159 3.264-8.799 7.596l-2.872 19.472-42.2138-3.012-1.4991-21.485c-.3046-4.353-3.6766-7.815-8.0184-8.234l-54.592-5.264c-.282-.027-.4886 2.983-.7706 2.983l-.0739 11.809 46.2347 7.455 1.5141 21.678c.3062 4.388 3.8471 7.937 8.2386 8.252l58.1374 4.147c.22.015.437.024.654.024 4.369 0 8.146-3.266 8.785-7.597l2.954-20.036h42.234l2.954 20.036c.638 4.329 4.419 7.596 8.793 7.596.215 0 .429-.008.638-.023l58.146-4.147c4.39-.315 7.932-3.864 8.238-8.252l1.513-21.678 46.214-7.489z" fill="#fff"/><path d="m133.91.997866c-15.358 3.414304-30.551 8.166604-44.795 15.336034.3257 12.577 1.1388 24.628 2.7871 36.869-5.5316 3.544-11.345 6.5857-16.512 10.734-5.2496 4.0386-10.612 7.9037-15.365 12.627-9.4963-6.2811-19.546-12.184-29.9-17.395-11.161 12.012-21.59801 24.977-30.12301336 39.484 6.41380336 10.3761 13.11001336 20.1011 20.34001336 29.3301h.2012v89.039c.1628.001.3269.008.4882.023l54.586 5.262c2.8593.276 5.0998 2.578 5.2988 5.443l1.6836 24.096 47.6151 3.399 3.279-22.24c.426-2.884 2.9-5.02 5.817-5.02h57.59c2.915 0 5.389 2.136 5.814 5.02l3.279 22.24 47.617-3.399 1.682-24.096c.201-2.865 2.439-5.166 5.299-5.443l54.564-5.262c.161-.015.323-.022.486-.023v-7.106l.023-.007v-81.926h.202c7.231-9.229 13.923-18.955 20.34-29.3301-8.523-14.508-18.964-27.473-30.125-39.484-10.351 5.2104-20.406 11.113-29.902 17.395-4.752-4.7233-10.104-8.5883-15.361-12.627-5.166-4.1487-10.987-7.1904-16.508-10.734 1.643-12.241 2.458-24.292 2.785-36.869-14.245-7.16993-29.437-11.92253-44.803-15.336534-6.135 10.311034-11.745 21.475034-16.631 32.391034-5.794-.9682-11.615-1.3271-17.443-1.3965v-.0078c-.041 0-.079.0078-.113.0078-.037 0-.076-.0078-.112-.0078v.0078c-5.839.0693-11.656.4283-17.451 1.3965-4.883-10.915-10.489-22.0795-16.633-32.390534zm-113.46 227.800134c.0227 5.275.0898 11.054.0898 12.205 0 51.838 65.76 76.754 147.4602 77.041h.201c81.701-.287 147.44-25.203 147.44-77.041 0-1.172.072-6.927.096-12.205l-49.064 4.732-1.692 24.225c-.203 2.92-2.525 5.244-5.445 5.453l-58.145 4.149c-.142.01-.284.015-.424.015-2.889 0-5.382-2.122-5.808-5.023l-3.334-22.611h-47.443l-3.334 22.611c-.448 3.043-3.168 5.232-6.233 5.008l-58.1448-4.149c-2.9196-.209-5.2417-2.533-5.4453-5.453l-1.6895-24.225-49.084-4.732z" fill="#478cbf"/><path d="m90.723 131.248c-18.16 0-32.891 14.716-32.891 32.879 0 18.175 14.73 32.898 32.891 32.898 18.169 0 32.896-14.723 32.896-32.898 0-18.163-14.727-32.879-32.896-32.879zm154.76 0c-18.172 0-32.898 14.716-32.898 32.879 0 18.175 14.726 32.898 32.898 32.898 18.159 0 32.887-14.723 32.887-32.898 0-18.163-14.728-32.879-32.887-32.879zm-77.387 19.24c-5.848 0-10.588 4.314-10.588 9.623v30.283c0 5.313 4.74 9.623 10.588 9.623s10.6-4.31 10.6-9.623v-30.283c0-5.309-4.751-9.623-10.6-9.623z" fill="#fff"/><path d="m93.87 144.248c-12.059 0-21.834 9.78-21.834 21.836 0 12.055 9.7754 21.826 21.834 21.826 12.065 0 21.836-9.771 21.836-21.826 0-12.056-9.771-21.836-21.836-21.836zm148.46 0c-12.056 0-21.824 9.78-21.824 21.836 0 12.055 9.769 21.826 21.824 21.826 12.068 0 21.834-9.771 21.834-21.826 0-12.056-9.766-21.836-21.834-21.836z" fill="#414042"/></g></svg>